<?xml version="1.0" encoding="UTF-8"?>
<!DOCTYPE svg PUBLIC "-//W3C//DTD SVG 1.1//EN" "http://www.w3.org/Graphics/SVG/1.1/DTD/svg11.dtd">
<!-- Creator: CorelDRAW 2019 (64-Bit Evaluation Version) -->
<svg xmlns="http://www.w3.org/2000/svg" xml:space="preserve" width="721.602mm" height="142.927mm" version="1.1" style="shape-rendering:geometricPrecision; text-rendering:geometricPrecision; image-rendering:optimizeQuality; fill-rule:evenodd; clip-rule:evenodd"
viewBox="0 0 43180.65 8552.76"
 xmlns:xlink="http://www.w3.org/1999/xlink"
 xmlns:xodm="http://www.corel.com/coreldraw/odm/2003">
 <defs>
  <style type="text/css">
   <![CDATA[
    .fil0 {fill:#FEFEFE}
    .fil1 {fill:#FFCC00}
    .fil2 {fill:white}
    .fil3 {fill:#FEFEFE;fill-rule:nonzero}
   ]]>
  </style>
 </defs>
 <g id="Layer_x0020_1">
  <metadata id="CorelCorpID_0Corel-Layer"/>
  <g id="_2189808988832">
   <polygon class="fil0" points="1969.51,3182 1969.27,1815.47 8118.69,1805.36 8120.93,3171.89 "/>
   <polygon class="fil0" points="8592.41,5406.82 8681.99,5406.67 11951.65,5401.3 11953.91,6767.83 5804.31,6727.61 5799.55,5411.42 5799.58,5411.41 "/>
   <path class="fil1" d="M10080.12 3587.99l1375.43 -2.26c1370.32,-2.24 2483.16,1106.96 2485.42,2477.28 2.25,1370.3 -1106.96,2483.15 -2477.27,2485.4l-2643.18 4.34 -2.24 -1366.54 2643.18 -4.33c615.76,-1.01 1113.97,-500.9 1112.96,-1116.64 -1.02,-615.77 -500.87,-1113.98 -1116.63,-1112.96l-594.66 0.98 -0.01 -0.01 -776.88 1.27 -6.12 -1366.54z"/>
   <path class="fil1" d="M3666.69 4965.08l-1181.28 1.94c-1370.31,2.26 -2483.15,-1106.94 -2485.41,-2477.24 -2.24,-1370.32 1106.96,-2483.15 2477.25,-2485.42l2643.17 -4.37 2.26 1366.54 -1409.96 2.32 -1233.22 2.02c-615.76,1.02 -1113.96,500.9 -1112.95,1116.64 1.01,615.78 500.85,1113.99 1116.62,1112.98l1177.39 -1.94 6.13 1366.53z"/>
   <polygon class="fil2" points="7070.82,3592.95 7070.81,3592.93 8684.54,3590.28 9648.15,3588.7 9654.27,4955.23 9096.67,4956.16 8651.16,4956.89 8651.15,4956.89 6048.96,4961.16 4098.65,4964.37 4092.53,3597.85 "/>
  </g>
  <g id="_2189808993504">
   <path class="fil3" d="M16591.57 747.19l3107.12 0c194.87,0 363.82,97.02 507.68,291.89 87.82,147.2 132.15,290.22 132.15,430.73l0 25.09 -17.57 16.73 -3363.88 0 0 639.82 2666.35 0c348.77,0 579.6,179.82 690.84,538.63l24.26 191.53 0 639.82c0,259.27 -111.24,470.04 -332.88,631.46 -86.98,49.35 -189.02,82.8 -306.95,101.2l-6.69 6.69 -3092.9 0c-15.89,-10.87 -74.44,-25.09 -173.97,-41.82 -164.76,-58.55 -288.55,-163.93 -372.19,-315.31 -66.91,-147.2 -100.36,-263.46 -100.36,-348.77l7.53 -9.2 3373.92 0 0 -622.26 -2666.35 0c-349.6,0 -579.6,-179.82 -690.85,-539.46l-24.25 -190.69 0 -723.47c0,-264.29 115.42,-477.56 347.93,-638.98 111.24,-56.04 208.26,-83.64 291.06,-83.64z"/>
   <path id="1" class="fil3" d="M21933.48 776.46c10.87,5.01 225.82,393.09 644,1164.23l752.73 1410.95 24.25 0 693.35 -1295.54 -700.88 -1272.12 7.53 -7.53 1205.21 0c10.04,5.01 224.99,393.09 644.84,1164.23l749.39 1410.95 25.09 0 1389.21 -2575.18 1205.21 0 7.53 7.53 7.52 0 -1913.62 3470.1 -10.04 6.69 -1386.7 0c-30.95,-29.27 -237.53,-398.11 -620.59,-1107.36l-6.69 0c-382.22,709.25 -588.81,1078.08 -620.59,1107.36l-1376.67 0c-24.26,-15.89 -184.84,-299.42 -480.08,-849.75l-1452.78 -2627.04 6.69 -7.53 1206.05 0z"/>
   <path id="2" class="fil3" d="M31793.46 725.44c19.24,12.54 270.99,470.04 754.41,1371.65l1173.43 2136.93 -9.2 7.53 -1203.54 0c-16.73,0 -119.6,-183.17 -308.62,-548.66l-41.82 -49.35 -1146.67 0 -117.93 7.53 -107.89 -7.53 -572.91 0 0 -16.73 416.51 -740.19 490.11 0 132.14 -7.52 134.66 7.52 372.19 0 0 -7.52c-425.71,-795.39 -653.21,-1211.07 -680.81,-1247.03l-1404.27 2609.48 -1205.21 0 -17.57 -17.57 1928.67 -3491.85 7.53 -6.69 1406.78 0z"/>
   <path id="3" class="fil3" d="M34089.29 823.3l1514.67 0 1842.53 2570.17 0 -2553.44 14.22 -16.73 860.62 0 16.73 16.73 0 3404.03 -16.73 16.73 -1509.65 0c-32.62,-34.29 -643.17,-888.22 -1830.82,-2562.64l-9.2 -7.53 0 -7.53 -7.52 0 0 2560.97 -17.57 16.73 -857.28 0 -16.73 -16.73 0 -3404.03 16.73 -16.73z"/>
   <path id="4" class="fil3" d="M38703.55 767.26l965.18 0 17.56 16.73 0 3460.07 -17.56 16.73 -965.18 0 -16.73 -16.73 0 -3460.07 16.73 -16.73zm3006.75 0l1470.34 0 0 6.69c-482.59,368 -1143.31,858.12 -1983.04,1470.35l0 10.04 1983.04 1999.76 0 6.69 -1330.67 0 -2073.36 -2065 0 -17.56 1933.69 -1410.96z"/>
   <polygon class="fil3" points="23902.4,6429.72 23016.41,6429.72 22823.4,6620.41 22823.4,7027.36 23004.78,7204.09 23674.51,7204.09 23674.51,7636.62 23016.41,7636.62 22830.38,7827.31 23681.48,7827.31 23874.49,7624.99 23874.49,7215.72 23681.48,7015.73 23023.38,7015.73 23023.38,6620.41 23704.74,6620.41 "/>
   <polygon id="1" class="fil3" points="26421.9,6429.72 25398.71,6429.72 25521.96,6620.41 25810.32,6620.41 25810.32,7827.31 26012.63,7827.31 26012.63,6620.41 26305.64,6620.41 "/>
   <polygon id="2" class="fil3" points="29015.83,7636.62 29015.83,6394.84 28813.52,6525.06 28813.52,7636.62 28169.37,7636.62 28169.37,6525.06 27969.38,6394.84 27969.38,7636.62 28155.41,7827.31 28829.79,7827.31 "/>
   <path id="3" class="fil3" d="M31733 7636.62l0 -1016.21 -197.66 -190.69 -872.04 0 0 1397.59 872.04 0 197.66 -190.69zm-199.99 0l-669.72 0 0 -1016.21 669.72 0 0 1016.21z"/>
   <polygon id="4" class="fil3" points="33580.46,7827.31 33580.46,6429.72 33380.47,6429.72 33380.47,7827.31 "/>
   <path id="5" class="fil3" d="M36309.26 7636.62l0 -1016.21 -188.36 -190.69 -704.6 0 -188.36 190.69 0 1016.21 188.36 190.69 704.6 0 188.36 -190.69zm-199.99 0l-681.35 0 0 -1016.21 681.35 0 0 1016.21z"/>
  </g>
 </g>
</svg>
